<?xml version="1.0" standalone="no"?>
<svg viewBox="0 0 200 200" xmlns="http://www.w3.org/2000/svg">
  <path fill="#0F62FE" d="M46.5,-72.5C60.7,-63.3,72.9,-51.1,78.3,-36.6C83.7,-22,82.2,-5.2,76.1,8.3C70.1,21.8,59.3,32,50.5,45.9C41.7,59.9,34.9,77.6,22.7,84.4C10.6,91.1,-6.8,86.8,-19.7,78C-32.6,69.2,-40.9,56,-48.4,43.9C-55.9,31.8,-62.6,20.9,-66.4,8.2C-70.3,-4.4,-71.3,-18.7,-67.1,-31.8C-62.9,-44.9,-53.5,-56.7,-41.4,-66.8C-29.3,-77,-14.7,-85.6,0.8,-86.7C16.2,-87.9,32.3,-81.7,46.5,-72.5Z" transform="translate(100 100)" />
</svg>
